<svg width="40" height="40" viewBox="0 0 40 40" fill="none" xmlns="http://www.w3.org/2000/svg">
<path d="M20.4844 36.2188C18.224 36.2188 16.099 35.7865 14.1094 34.9219C12.1198 34.0677 10.3646 32.8802 8.84375 31.3594C7.32292 29.849 6.13021 28.099 5.26562 26.1094C4.41146 24.1198 3.98438 21.9896 3.98438 19.7188C3.98438 18.1875 4.18229 16.724 4.57812 15.3281C4.98438 13.9219 5.54167 12.6198 6.25 11.4219C6.96875 10.224 7.79688 9.16146 8.73438 8.23438C9.14062 7.81771 9.56771 7.57292 10.0156 7.5C10.4635 7.41667 10.8802 7.46354 11.2656 7.64062C11.651 7.81771 11.9479 8.08333 12.1562 8.4375C12.375 8.79167 12.4583 9.19271 12.4062 9.64062C12.3646 10.0885 12.1302 10.5417 11.7031 11C10.5885 12.1146 9.70833 13.4219 9.0625 14.9219C8.42708 16.4115 8.10938 18.0104 8.10938 19.7188C8.10938 21.4375 8.42708 23.0469 9.0625 24.5469C9.69792 26.0469 10.5833 27.3646 11.7188 28.5C12.8542 29.625 14.1719 30.5052 15.6719 31.1406C17.1719 31.7865 18.776 32.1094 20.4844 32.1094C22.2031 32.1094 23.8125 31.7865 25.3125 31.1406C26.8125 30.5052 28.1302 29.625 29.2656 28.5C30.401 27.3646 31.2865 26.0469 31.9219 24.5469C32.5677 23.0469 32.8906 21.4375 32.8906 19.7188C32.8802 18.0104 32.5521 16.4115 31.9062 14.9219C31.2708 13.4219 30.3958 12.1198 29.2812 11.0156C28.8542 10.5573 28.6146 10.1042 28.5625 9.65625C28.5208 9.19792 28.6094 8.79688 28.8281 8.45312C29.0469 8.09896 29.3438 7.83333 29.7188 7.65625C30.1042 7.47917 30.5208 7.43229 30.9688 7.51562C31.4167 7.58854 31.8438 7.83333 32.25 8.25C33.1771 9.16667 33.9948 10.224 34.7031 11.4219C35.4219 12.6198 35.9844 13.9219 36.3906 15.3281C36.7969 16.724 37 18.1875 37 19.7188C37 21.9896 36.5677 24.1198 35.7031 26.1094C34.8385 28.099 33.6458 29.849 32.125 31.3594C30.6146 32.8802 28.8646 34.0677 26.875 34.9219C24.8854 35.7865 22.7552 36.2188 20.4844 36.2188ZM20.4844 20.1094C19.8281 20.1094 19.3021 19.901 18.9062 19.4844C18.5104 19.0573 18.3125 18.4948 18.3125 17.7969V4.53125C18.3125 3.84375 18.5104 3.28646 18.9062 2.85938C19.3021 2.43229 19.8281 2.21875 20.4844 2.21875C21.151 2.21875 21.6823 2.43229 22.0781 2.85938C22.4844 3.28646 22.6875 3.84375 22.6875 4.53125V17.7969C22.6875 18.4948 22.4844 19.0573 22.0781 19.4844C21.6823 19.901 21.151 20.1094 20.4844 20.1094Z" fill="white"/>
</svg>
